<svg id="wave" style="transform:rotate(0deg); transition: 0.3s" viewBox="0 0 1440 490" version="1.1" xmlns="http://www.w3.org/2000/svg"><defs><linearGradient id="sw-gradient-0" x1="0" x2="0" y1="1" y2="0"><stop stop-color="rgba(89.463, 243, 62, 1)" offset="0%"></stop><stop stop-color="rgba(11, 255, 97.958, 1)" offset="100%"></stop></linearGradient></defs><path style="transform:translate(0, 0px); opacity:1" fill="url(#sw-gradient-0)" d="M0,343L26.7,302.2C53.3,261,107,180,160,171.5C213.3,163,267,229,320,220.5C373.3,212,427,131,480,81.7C533.3,33,587,16,640,8.2C693.3,0,747,0,800,16.3C853.3,33,907,65,960,89.8C1013.3,114,1067,131,1120,179.7C1173.3,229,1227,310,1280,310.3C1333.3,310,1387,229,1440,204.2C1493.3,180,1547,212,1600,261.3C1653.3,310,1707,376,1760,383.8C1813.3,392,1867,343,1920,302.2C1973.3,261,2027,229,2080,212.3C2133.3,196,2187,196,2240,163.3C2293.3,131,2347,65,2400,49C2453.3,33,2507,65,2560,89.8C2613.3,114,2667,131,2720,147C2773.3,163,2827,180,2880,204.2C2933.3,229,2987,261,3040,285.8C3093.3,310,3147,327,3200,334.8C3253.3,343,3307,343,3360,359.3C3413.3,376,3467,408,3520,359.3C3573.3,310,3627,180,3680,179.7C3733.3,180,3787,310,3813,375.7L3840,441L3840,490L3813.3,490C3786.7,490,3733,490,3680,490C3626.7,490,3573,490,3520,490C3466.7,490,3413,490,3360,490C3306.7,490,3253,490,3200,490C3146.7,490,3093,490,3040,490C2986.7,490,2933,490,2880,490C2826.7,490,2773,490,2720,490C2666.7,490,2613,490,2560,490C2506.7,490,2453,490,2400,490C2346.7,490,2293,490,2240,490C2186.7,490,2133,490,2080,490C2026.7,490,1973,490,1920,490C1866.7,490,1813,490,1760,490C1706.7,490,1653,490,1600,490C1546.7,490,1493,490,1440,490C1386.7,490,1333,490,1280,490C1226.7,490,1173,490,1120,490C1066.7,490,1013,490,960,490C906.7,490,853,490,800,490C746.7,490,693,490,640,490C586.7,490,533,490,480,490C426.7,490,373,490,320,490C266.7,490,213,490,160,490C106.7,490,53,490,27,490L0,490Z"></path></svg>